<svg width="72" height="73" viewBox="0 0 72 73" fill="none" xmlns="http://www.w3.org/2000/svg">
<rect y="0.162109" width="71.8912" height="71.8913" rx="35.9456" fill="#C87360"/>
<path d="M27.7431 20.9254V51.1654H23.3799V26.5414C22.1271 27.967 19.9671 28.8742 17.5479 28.9174V25.2886C20.5287 25.0294 22.6887 23.3878 23.3799 20.9254H27.7431Z" fill="white"/>
<path d="M48.5989 34.1878C52.0549 35.527 54.3445 38.2054 54.3445 42.0934C54.3445 48.1846 49.3765 51.5974 43.3285 51.5974C37.3237 51.5974 32.3557 48.1846 32.3557 42.0934C32.3557 38.2054 34.6021 35.527 38.0581 34.1878C35.6389 32.8486 34.2133 30.6454 34.2133 28.0534C34.2133 23.9494 37.4965 20.623 43.3285 20.623C49.1605 20.623 52.4437 23.9494 52.4437 28.0534C52.4437 30.6454 51.0181 32.8486 48.5989 34.1878ZM43.3285 23.6902C39.9157 23.6902 38.0581 25.6342 38.0581 28.2694C38.0581 30.991 40.0021 33.0214 43.3285 33.0214C46.6549 33.0214 48.5989 30.991 48.5989 28.2694C48.5989 25.6342 46.7413 23.6902 43.3285 23.6902ZM43.3285 48.0118C47.5621 48.0118 49.9381 45.463 49.9381 41.9206C49.9381 38.0758 47.1733 35.8726 43.3285 35.8726C39.4837 35.8726 36.7189 38.0758 36.7189 41.9206C36.7189 45.463 39.1381 48.0118 43.3285 48.0118Z" fill="white"/>
</svg>
