<svg width="17" height="16" viewBox="0 0 17 16" fill="none" xmlns="http://www.w3.org/2000/svg">
<path d="M1.81445 7.28613C1.26217 7.28613 0.814453 7.73385 0.814453 8.28613C0.814453 8.83842 1.26217 9.28613 1.81445 9.28613L1.81445 7.28613ZM16.5216 8.99324C16.9121 8.60272 16.9121 7.96955 16.5216 7.57903L10.1576 1.21507C9.76707 0.824541 9.13391 0.824541 8.74339 1.21507C8.35286 1.60559 8.35286 2.23875 8.74339 2.62928L14.4002 8.28613L8.74338 13.943C8.35286 14.3335 8.35286 14.9667 8.74338 15.3572C9.13391 15.7477 9.76707 15.7477 10.1576 15.3572L16.5216 8.99324ZM1.81445 9.28613L15.8145 9.28613L15.8145 7.28613L1.81445 7.28613L1.81445 9.28613Z" fill="black" fill-opacity="0.87"/>
</svg>
