<svg width="33" height="33" viewBox="0 0 33 33" fill="none" xmlns="http://www.w3.org/2000/svg">
<g clip-path="url(#clip0_1497_15373)">
<path d="M22.2475 26.4231L27.1075 31.2811C27.4985 31.6721 28.1315 31.6721 28.5215 31.2811L31.3505 28.4531C31.7405 28.0631 31.7405 27.4301 31.3505 27.0391L24.1485 19.8381C24.1485 19.8381 25.8145 16.4021 25.8145 13.7461C25.8145 7.11909 20.4415 1.74609 13.8145 1.74609C7.18745 1.74609 1.81445 7.11909 1.81445 13.7461C1.81445 20.3731 7.18745 25.7461 13.8145 25.7461C17.1215 25.7461 20.1145 24.4091 22.2845 22.2461M7.81485 11.7464H19.8149M7.81485 15.7464H12.8149" stroke="black" stroke-width="2" stroke-linecap="round" stroke-linejoin="round"/>
</g>
<defs>
<clipPath id="clip0_1497_15373">
<rect width="32" height="32" fill="white" transform="translate(0.814453 0.746094)"/>
</clipPath>
</defs>
</svg>
