<svg width="72" height="73" viewBox="0 0 72 73" fill="none" xmlns="http://www.w3.org/2000/svg">
<rect y="0.608765" width="71.8912" height="71.8913" rx="35.9456" fill="#C87360"/>
<path d="M27.4351 19.9432C28.2627 17.6267 27.955 18.339 28.2627 17.6267C28.5737 16.9071 29.0247 16.2621 29.5815 15.7262C30.0844 15.242 30.6736 14.8469 31.3238 14.5661C32.0359 14.2585 32.821 14.0881 33.646 14.0881C36.8832 14.0881 39.5075 16.7124 39.5075 19.9497C39.5075 23.187 36.8832 25.8113 33.646 25.8113C32.821 25.8113 32.0359 25.6409 31.3238 25.3333" stroke="white" stroke-width="2" stroke-linecap="round"/>
<path d="M43.2061 36.4753C42.8838 34.4606 41.5224 33.2441 40.0033 32.306C37.9425 31.0334 35.6397 29.8514 33.2195 29.7546C30.6733 29.6527 29.2274 32.5358 28.388 34.9418C27.4243 37.7041 26.3637 41.0619 25.543 43.5576L28.6215 47.0049V58.6798C31.3551 59.2445 37.7863 59.2384 41.6424 57.6572C46.4625 55.6808 48.7871 53.1402 48.4135 47.677C48.1146 43.3049 43.7585 40.4522 41.6424 39.8966C42.074 39.4729 43.48 38.1871 43.2061 36.4753Z" stroke="white" stroke-width="2" stroke-linejoin="round"/>
<path d="M25.5391 43.6479L25.8185 43.9469L33.9017 52.5937C34.983 53.7505 36.7974 53.8116 37.9541 52.7302V52.7302C39.1108 51.6489 39.172 49.8346 38.0906 48.6778L32.6129 42.8181V42.8181C32.1566 42.3331 32.0419 41.6192 32.3233 41.0157L33.919 37.5932" stroke="white" stroke-width="2" stroke-linecap="round"/>
<path d="M28.0298 18.2292L24.6918 26.594C24.0885 28.106 25.2021 29.7495 26.8301 29.7495V29.7495" stroke="white" stroke-width="2" stroke-linecap="round" stroke-linejoin="round"/>
</svg>
