<svg width="33" height="33" viewBox="0 0 33 33" fill="none" xmlns="http://www.w3.org/2000/svg">
<g clip-path="url(#clip0_1497_15347)">
<path d="M16.8145 21.7461V23.7461M16.8145 21.7461C16.2615 21.7461 15.8145 21.2991 15.8145 20.7461C15.8145 20.1931 16.2615 19.7461 16.8145 19.7461C17.3675 19.7461 17.8145 20.1931 17.8145 20.7461C17.8145 21.2991 17.3675 21.7461 16.8145 21.7461ZM18.8145 13.7461H11.8145V6.74609C11.8145 3.98409 14.0525 1.74609 16.8145 1.74609C19.5765 1.74609 21.8145 3.98409 21.8145 6.74609V13.7461H26.8145C27.4085 13.7461 27.8145 14.2151 27.8145 14.7461V20.7461C27.8145 26.8211 22.8895 31.7461 16.8145 31.7461C10.7395 31.7461 5.81445 26.8211 5.81445 20.7461V14.7461C5.81445 14.1831 6.26745 13.7461 6.81445 13.7461H8.81445" stroke="black" stroke-width="2" stroke-linecap="round" stroke-linejoin="round"/>
</g>
<defs>
<clipPath id="clip0_1497_15347">
<rect width="32" height="32" fill="white" transform="translate(0.814453 0.746094)"/>
</clipPath>
</defs>
</svg>
