<svg width="72" height="72" viewBox="0 0 72 72" fill="none" xmlns="http://www.w3.org/2000/svg">
<rect width="71.8912" height="71.8913" rx="35.9456" fill="#C87360"/>
<path d="M11.52 38.7616C11.52 39.3139 11.9677 39.7616 12.52 39.7616C13.0723 39.7616 13.52 39.3139 13.52 38.7616H11.52ZM34.7578 15.3202L23.889 11.4213L25.9469 22.7835L34.7578 15.3202ZM13.52 38.7616C13.52 35.0753 13.7632 28.5201 20.1406 22.3021L18.7444 20.8701C11.7842 27.6563 11.52 34.8927 11.52 38.7616H13.52ZM20.1406 22.3021C22.3215 20.1758 24.4281 18.7559 26.3405 17.8229L25.4636 16.0254C23.3496 17.0568 21.0696 18.6031 18.7444 20.8701L20.1406 22.3021Z" fill="white"/>
<path d="M12.52 38.7599C12.52 34.9823 12.7737 28.0865 19.4425 21.5844C21.3345 19.7397 23.1844 18.3982 24.9209 17.434" stroke="white" stroke-width="2" stroke-linecap="round" stroke-linejoin="round"/>
<path d="M43.7821 14.0061C43.3038 13.7299 42.6922 13.8938 42.4161 14.3721C42.1399 14.8504 42.3038 15.462 42.7821 15.7381L43.7821 14.0061ZM52.464 45.8513L61.275 38.388L50.4061 34.4892L52.464 45.8513ZM42.7821 15.7381C45.9745 17.5813 51.5299 21.0694 53.7261 29.7015L55.6644 29.2083C53.2675 19.7875 47.1326 15.9405 43.7821 14.0061L42.7821 15.7381ZM53.7261 29.7015C54.4772 32.6533 54.6535 35.1876 54.5053 37.3104L56.5004 37.4497C56.6643 35.1032 56.4651 32.3555 55.6644 29.2083L53.7261 29.7015Z" fill="white"/>
<path d="M43.2837 14.873C46.5552 16.7617 52.4003 20.4293 54.6969 29.4558C55.3484 32.0166 55.5852 34.2894 55.552 36.2754" stroke="white" stroke-width="2" stroke-linecap="round" stroke-linejoin="round"/>
<path d="M48.4435 52.9649C48.9218 52.6888 49.0856 52.0772 48.8095 51.5989C48.5334 51.1206 47.9218 50.9567 47.4435 51.2329L48.4435 52.9649ZM16.5237 44.5611L18.5816 55.9232L27.3926 48.46L16.5237 44.5611ZM47.4435 51.2329C44.2511 53.076 38.4525 56.1431 29.8789 53.729L29.3368 55.6542C38.694 58.2888 45.0929 54.8994 48.4435 52.9649L47.4435 51.2329ZM29.8789 53.729C26.9469 52.9035 24.664 51.7891 22.8998 50.5993L21.7816 52.2575C23.7317 53.5726 26.2109 54.774 29.3368 55.6542L29.8789 53.729Z" fill="white"/>
<path d="M47.9419 52.0998C44.6704 53.9886 38.5716 57.2168 29.6062 54.6924C27.0627 53.9763 24.976 53.0449 23.2727 52.0232" stroke="white" stroke-width="2" stroke-linecap="round" stroke-linejoin="round"/>
</svg>
