<svg width="113" height="102" viewBox="0 0 113 102" fill="none" xmlns="http://www.w3.org/2000/svg">
<path d="M5.985 4.96212L4.60916 6.527C4.28358 6.8946 4.34135 7.47749 4.74045 7.83458C10.1598 12.7078 15.3953 17.707 20.4523 22.8113L20.4996 22.8585L23.5138 25.5105C24.7059 26.5607 26.4598 26.5187 27.426 25.4212L27.6939 25.1166C28.6653 24.0138 28.4816 22.2704 27.2895 21.2201L24.2753 18.563L24.228 18.5262C18.4883 14.0731 12.8432 9.536 7.28207 4.91486C6.87772 4.57877 6.30533 4.59978 5.985 4.96737V4.96212Z" fill="white" stroke="black" stroke-width="2.80069" stroke-miterlimit="10"/>
<path d="M91.096 99.5879C90.5079 98.9683 90.3241 98.0703 90.5867 97.2616C91.5844 94.1843 93.3488 90.3194 96.5206 86.6907C98.0697 84.9211 100.139 82.6105 103.699 81.0141C105.668 80.1319 107.506 79.738 108.935 79.5542C109.633 79.465 110.332 79.7013 110.846 80.1791L112.033 81.2819C112.805 82.0013 113.02 83.1304 112.558 84.0808C111.828 85.5775 110.883 87.3997 109.696 89.4162C107.727 92.7612 106.493 94.8303 104.214 97.0568C102.439 98.795 100.039 101.085 96.6204 101.436C95.8222 101.52 94.3466 101.652 92.7712 100.853C92.057 100.491 91.5056 100.034 91.0855 99.5932L91.096 99.5879Z" fill="#C87360"/>
<path d="M50.0273 38.3381C49.8855 38.4378 49.6964 38.5691 49.4864 38.7214L27.1579 19.7642C26.0393 18.8137 24.4272 18.8662 23.5345 19.885L21.5337 22.1588C20.6358 23.1776 20.7933 24.7845 21.8803 25.777L43.5892 45.4851C43.5051 45.6426 43.4316 45.7844 43.3739 45.8999C41.5359 49.5233 40.2546 54.6591 41.5779 55.4888C41.809 55.6358 42.1503 55.6621 42.4181 55.5728C43.2006 55.3103 43.1271 54.134 43.7782 52.191C44.3138 50.5893 45.0385 49.371 45.5899 48.4468C45.7527 48.1738 45.8997 47.9374 46.0468 47.7116L92.8831 90.2314C92.715 91.2081 92.8621 92.0116 93.3872 92.4685C94.6895 93.6185 97.8035 92.2164 100.335 89.3387C102.866 86.461 103.864 83.1947 102.561 82.0499C102.036 81.5878 101.222 81.5458 100.272 81.8346L52.028 40.8744C52.2748 40.6591 52.5269 40.4491 52.8314 40.2075C53.6822 39.5406 54.7902 38.6741 56.3131 37.939C58.1615 37.0462 59.3378 36.9727 59.4953 36.164C59.5479 35.891 59.4796 35.5549 59.3063 35.3448C58.319 34.137 53.3881 36.0537 50.022 38.3433L50.0273 38.3381Z" stroke="black" stroke-width="1.15429" stroke-miterlimit="10"/>
<path d="M75.3217 64.9231L29.2469 24.3568C28.5117 23.7109 27.4352 23.7371 26.8418 24.4145L26.6265 24.6614C26.0331 25.3388 26.1434 26.41 26.8733 27.0559L72.9481 67.6222C72.9744 68.4204 73.3315 69.2291 74.0089 69.8225L95.2714 88.5382C96.5055 89.6252 98.3172 89.5832 99.3202 88.4436C100.323 87.3041 100.134 85.5029 98.9 84.4159L77.6375 65.7003C76.9601 65.1069 76.1147 64.8496 75.3217 64.9283V64.9231Z" fill="#C87360"/>
<path d="M39.0773 16.8299C38.4629 16.6881 38.2003 16.7091 34.3354 16.4938C33.7367 16.4623 33.2484 16.4308 32.9385 16.415C32.9385 16.415 31.82 16.3205 30.7855 16.1577C25.7285 15.349 14.7218 5.41878 14.7218 5.41878C13.3354 4.19523 11.2927 2.28376 8.24694 1.60634C6.29346 1.17573 4.05115 2.09471 2.77509 3.60709C1.06317 5.63409 1.50428 8.22823 1.65131 9.09994C2.18169 12.2192 5.0489 13.9837 6.25145 15.0392C6.25145 15.0392 17.4997 24.6963 18.9386 29.6115C19.2327 30.6145 19.4637 31.712 19.4637 31.712C19.5215 32.0166 19.6107 32.4945 19.7158 33.0879C20.4194 36.8951 20.4404 37.1629 20.661 37.7563C20.8448 38.2499 21.8898 41.0751 23.3864 41.0856C24.1951 41.0909 24.8253 40.2664 25.3452 39.6205C26.1066 38.6753 26.2169 37.9611 26.721 36.6483C27.1989 35.4037 27.7292 34.4322 28.8845 32.5207C29.4884 31.523 31.4839 28.388 34.934 25.6468C36.6827 24.2604 37.5807 23.6093 38.7517 22.9791C39.9858 22.3122 40.6842 22.1127 41.5244 21.2357C42.102 20.637 42.8372 19.9071 42.7269 19.1089C42.5274 17.6281 39.5919 16.9454 39.0773 16.8299Z" fill="#C87360" stroke="black" stroke-width="1.15429" stroke-miterlimit="10"/>
</svg>
