<svg width="74" height="32" viewBox="0 0 74 32" fill="none" xmlns="http://www.w3.org/2000/svg">
<path d="M8.60416 24.8218C9.56018 24.8218 8.60416 24.8218 11.2415 24.8218L11.2742 20.5767C11.2742 20.5767 10.2525 20.5767 9.88984 20.5767C8.41759 20.5767 7.71408 19.4877 7.71408 18.1752V11.2379H11.1096V7.5302H7.71408V3.13349H2.90102V7.5302H0V11.2379H2.90102V19.4735C2.90102 23.2796 5.17568 24.8218 8.60416 24.8218Z" fill="black" fill-opacity="0.87"/>
<path d="M25.473 14.9127V24.5921H30.4901V13.7644C30.4901 9.33482 27.7147 7.20209 24.3851 7.20209C20.8577 7.20209 19.2094 9.49888 18.9127 11.1066H18.715V1.62417H13.9019V24.5921H18.715V14.9127C18.715 12.3207 20.2973 11.1723 22.3083 11.1723C24.3192 11.1723 25.473 12.3207 25.473 14.9127Z" fill="black" fill-opacity="0.87"/>
<path d="M32.4139 27.1185V31.1543C37.3259 31.6793 39.5017 30.0059 41.6445 24.7233L48.6662 7.5302H43.7213L39.6335 18.5548L35.6446 7.5302H30.6997L36.9962 23.0499C37.3918 24.0015 37.3918 24.5265 37.0292 25.3795C36.6336 26.2983 35.8094 27.5451 32.4139 27.1185Z" fill="black" fill-opacity="0.87"/>
<path d="M50.1919 24.5921H55.005V7.5302H50.1919V24.5921ZM49.9611 2.90381C49.9611 4.38032 51.2139 5.52871 52.5984 5.52871C53.983 5.52871 55.2357 4.38032 55.2357 2.90381C55.2357 1.39449 53.983 0.246094 52.5984 0.246094C51.2139 0.246094 49.9611 1.39449 49.9611 2.90381Z" fill="black" fill-opacity="0.87"/>
<path d="M62.9314 24.9202C66.6895 24.9202 68.0741 22.4922 68.4037 21.5734H68.6015V24.5921H73.1838V12.7472C73.1838 9.03952 71.107 7.20209 65.9313 7.20209C60.5908 7.20209 58.3491 9.10514 58.3491 12.4519V13.2394H62.8654V12.9113C62.8654 11.1394 64.25 10.6473 65.7994 10.6473C67.2829 10.6473 68.4697 11.1394 68.4697 12.9441V13.1737C68.4697 14.1253 67.9752 14.3878 66.3928 14.6174L63.4918 15.044C60.5248 15.4705 57.426 16.2908 57.426 20.0641C57.426 23.5749 60.1292 24.9202 62.9314 24.9202ZM62.2391 19.6704C62.2391 18.7845 62.7336 18.0626 64.217 17.833L66.6236 17.4064C67.3818 17.2752 68.2059 17.1439 68.4697 16.7502V18.6532C68.4697 19.9985 66.8543 21.5078 64.5797 21.5078C62.9314 21.5078 62.2391 20.7203 62.2391 19.6704Z" fill="black" fill-opacity="0.87"/>
</svg>
