<svg width="16" height="16" viewBox="0 0 16 16" fill="none" xmlns="http://www.w3.org/2000/svg">
<path d="M1 6.74121C0.447715 6.74121 -4.82823e-08 7.18893 0 7.74121C4.82823e-08 8.2935 0.447715 8.74121 1 8.74121L1 6.74121ZM15.7071 8.44832C16.0976 8.05779 16.0976 7.42463 15.7071 7.0341L9.34314 0.670142C8.95262 0.279618 8.31946 0.279618 7.92893 0.670143C7.53841 1.06067 7.53841 1.69383 7.92893 2.08436L13.5858 7.74121L7.92893 13.3981C7.53841 13.7886 7.53841 14.4218 7.92893 14.8123C8.31946 15.2028 8.95262 15.2028 9.34315 14.8123L15.7071 8.44832ZM1 8.74121L15 8.74121L15 6.74121L1 6.74121L1 8.74121Z" fill="white"/>
</svg>
